<svg data-slopcamera-line-weight="1.5" xmlns="http://www.w3.org/2000/svg" width="629" height="566" viewBox="20.593 21.717 588.002 522.565"><defs><mask id="a" width="629" height="566" x="0" y="0" mask-type="luminance" maskContentUnits="userSpaceOnUse" maskUnits="userSpaceOnUse"><path d="M0 0h629v566H0z"/><path fill="#010101" d="M0 0h629v566H0zm91.5 46q-6 3.6-10.7 8.8c-3.4 4.2-5.6 8.8-7.4 13.8-1.8 6.3-1.8 12.6-1.8 19.2v1.7c0 14.2 2.3 27.5 7.2 40.9Q85.3 147 97 161l1.2 1.6c5.7 7.5 14.3 13.3 22.2 18.4l1.6 1h3v-8l-2.5-1.6c-8.6-5.7-16.5-11.8-22.8-20Q89.2 137.3 84 120l-.8-2.6c-2-6.8-3-13.3-3.2-20.4v-2.3c-.6-17-.6-17 1.2-23.5Q83.6 64.7 88 59q3.5-3.5 7.8-6.1C98 52 98 52 101 51.7q6.9-.4 13.7.9c3.7 1.3 6.7 3 9.8 5.3 4.3 3.6 7.8 7.3 10.8 12 2.5 4.6 4.6 9 5.4 14.2 2 17.3-.4 34.8-4.3 51.7-3 12.6-5 24.5-5 37.5v1.8c0 6.5.4 12.7 2.5 18.9 2.5 6.5 5.7 12 10.3 17.3q9 9.6 20.7 15.7h2v7c2.1 3.8 4.2 7.2 7.3 10.3 3.5 2.2 6.6 3.8 10.7 4.7 5.8.6 11.3.7 17-.7q4.5-1.7 8.6-4.4c2.5-2.2 4.1-5 5.7-7.8q1.4-2.9 2-6c.3-2 .3-2-.3-5.1q-1-2.8-2.5-5.3-3.6-3.8-8.2-6.5c-2.5-1.3-4.7-2.4-7.4-3q-6.4-.8-12.9-.2-5.3 1.4-10 4-3.1 2.2-6 5v2c-8.3-4-14.4-8.6-21-15v-3l1.8-1q15-8.7 29.6-17.9l24.5-15 3.5-2 1.7-1 7.9-5c4.7-3.2 9.2-6 14.7-7.7 4.6-.8 9.1-.8 13.8-.8h3q6.7-.2 13.3 1.7 5.9 2.3 11.2 5.8l4 2.4 2 1.2 10.2 6.1 26.3 15.7 7.4 4.4 29.9 18.1 21 12.7 8.1 4.9 1.7 1 6.6 3.9 4.9 3 1.5.9 8.5 5 21.6 13.1 3 1.8 12.6 7.7 10.1 6.2 1.8 1q15.6 9.6 31.3 18.8 13.4 7.8 26.4 16 12 7.5 24.4 14.7c17.8 10.5 17.8 10.5 25.4 15.2l1.8 1.2q5 3 9.5 6.9c1.8 2.8 1.8 2.8 3 6 .4 2.7.5 4.4 0 7q-1.2 4.3-4 8c-6.5 6.2-14 10.6-21.8 15l-9.6 5.6-2 1.1q-8.9 5.1-17.4 10.7-14.1 8.8-28.4 17.2-15 8.8-29.6 18L446 442.1 418 459l-4.9 3-6 3.7c-5.2 3.2-9.7 5.4-15.7 6.7q-11.7 1.8-23.5 0c-14.6-4.2-28-14.5-40.7-22.5q-9.8-6-19.8-11.7-13.2-7.7-26.1-15.6l-1.8-1-14.3-8.8-12.4-7.6-1.8-1q-13.5-8.2-27-16-12.3-7.2-24.4-14.7-13.9-8.4-27.8-16.5-12.2-7-24-14.5-12.5-7.7-25.3-15.1l-15.5-9.3-9.4-5.6-5.2-3.2-11.5-6.8-9.1-5.5-3.7-2.3-5.8-3.5-1.7-1c-2.3-1.5-4.2-2.8-5.9-4.9l-2.7-4.4v-13c2.3-3.8 4.5-6.7 8-9.6q6.6-4.5 13.5-8.6l3.4-2q9.5-5.9 19-11.5l2-1.2 9.5-5.7Q120 221.9 132 214l-3-5h-4q-13.5 8-26.9 16.2l-1.7 1-9 5.5-16.3 9.8c-12.5 7-12.5 7-23.1 16.5q-3.1 4.7-5 10-.9 6-.7 12.2V312q-.2 6.1 1.7 11.8c1.7 3.5 3.3 6.4 6 9.3 4.4 4.1 9.5 7.2 14.8 10.3l5.3 3.1 2.8 1.7 15.2 9.1 30 18q10.8 6.4 21.3 13 9.3 5.8 18.7 11.2l14.1 8.5 11.7 7.1 19 11.5q25.4 15.6 51.2 30.7 22.7 13.5 45.3 27.4 15.9 9.7 32.1 19.2l15.4 9q1 .8 2 1.3l3.5 2.2q6.3 4 13.6 5.6 6 .5 12 .3h3.1c6.2 0 12-.5 17.9-2.3q3.4-1.4 6.7-3l1.8-1q7.3-3.8 14-8.5 6.5-4.1 13.1-8 11.8-6.9 23.3-14l1.9-1 21.2-13q24.3-15 48.8-29.5l15.2-9 1.9-1.1 11.4-6.9 3.7-2.1c10.2-6 10.2-6 19-13.9q3.2-5.1 5-11l.2-4.8v-9.4l.1-6.9.1-10.5v-9.8c0-4 0-7.4-1.2-11.2-1.9-4.3-4-8.2-7.3-11.7-4-3.6-9-6.2-13.6-9l-3.4-2-6.8-3.9q-6-3.4-11.9-7.2-11.7-7.2-23.7-14.1-18.8-11-37.5-22.6-17.6-10.9-35.6-21.5l-15.4-9.2-9.1-5.5-5.2-3-12.4-7.5-39.6-24-17-10.3-5.3-3.2-22.7-13.7-3-1.8-1.9-1L302 167l-7.3-4.6-3.7-2.2c-13.4-8.5-13.4-8.5-28-14.6-9.3-1.8-19.8-1.5-29-.3-6 1-11 3.6-16.2 6.5l-7.6 4.8-9.6 6-8 5Q169.1 182.1 145 196h-2q-2.4-5-3.4-10.5l-.2-8.6v-3.3c.2-16.7 3.9-33.4 7.6-49.6l1-2c1.3-7.2 1.2-14.6 1.2-21.9v-3.3c0-7.8-.3-15.4-3-22.8q-1-2.7-2.4-5.2l-1-1.8c-2.2-4.1-4.5-7.9-7.8-11.3q-7.8-6.6-17.2-10.6c-5.5-1.6-11.2-1.7-17-1.5Q96 44 91.6 46m178.9 220.8q-13.4 6.7-24.3 16.9c-5.1 5.3-8 12.6-11.1 19.3-1.8 5.5-1.4 11.4-1.3 17.1.2 4.3.8 7.7 2.4 11.6 2 3.9 4 7.5 7 10.6q6.5 5.4 13.9 9.7 3.3-.6 6.2-2.2l2.4-1.4 2.6-1.6 2.7-1.6 2.7-1.6q6.8-4.2 13.4-8.6l-1-5-1.5-1.2-2-1.7-1.9-1.6-1.6-1.5-1-2v-12c1.7-3 3.3-5.3 5.7-7.6q4-3.4 8.9-5.4l7.4-2 2-.6c4.6-1 9.3-.7 14-.4q6.6 1.1 12.4 4.3 3 1.8 5.6 3.7 2.5 3.9 4 8 .6 4.9.4 9.8v2.7l-.1 8.5-.1 5.8-.2 14.2q8.7 6.2 17.8 11.8l2 1 3.5 2.2 6.7 4c2.7-.4 4.8-.9 7.2-2.2l2.3-1.4 2.4-1.6 2.6-1.7 5-3.2 2.4-1.5 7.1-4.4v-6l-16-10 .4-7.7.2-2.4q0-4.2 1-8.5c1-5.6 1-11.7.4-17.4-1-5-3-9.2-5.6-13.7-4.3-6.4-9-11.9-15.3-16.5-8.4-6-17.2-9.6-27.1-12.3-21.2-5.3-45-1.6-64.6 7.3M412 359l-10 6.2-3 1.7q-7.6 4.7-15 10.1v6q2.6 3.8 6 7 5.6 3.8 12 6 7.8 1.1 15.6-.5 5.4-1.6 10.3-4.8c2.2-1.8 3.4-3.1 5-5.5 1-2.9 1.3-4.7 1.3-7.6l-.2-3.6q-3.6-5.2-8.7-9-4-2.7-8.3-5z"/><path fill="#f2f2f2" d="M104.6 43.5h2.1c4.7.2 8.7 1 13.2 2.5q7.6 3.3 13.9 8.8 6.6 6.7 10.7 15.2c2.2 4.9 3.8 9.3 4.3 14.6q.5 7.7.3 15.3v3.5c0 9.8-1 18.6-3.3 28.2-3.5 14.9-6.3 29.3-6.3 44.6v3.2c0 4.8.4 8.9 2 13.3l1.5 3.3c6-1.6 10.8-4.7 16-7.8l3-1.8q15-9 30-18.4l18.8-11.6 5.8-3.7 3-1.8 2.4-1.5q8.1-3.7 16.8-4.7c8.8-.4 18.2-.7 26.8 1.5 9.2 3.4 17.5 9 25.8 14.2l8.8 5.3 16.2 9.9q8.5 5.3 17.2 10.3l27.4 16.6 36.1 21.8 13.2 7.9 4.9 3 9.8 5.8 2.5 1.5 5 3L445 253l26.1 15.8 2.9 1.7 12.5 7.7q18.3 11.1 36.7 22 16.9 9.8 33.5 20.2 4.7 3 9.4 5.7l2.3 1.4 3.9 2.3c2.8 1.8 5.2 3.5 7.5 6q4.1 5.6 6.3 12.3.7 5.7.5 11.5v30c0 4-.1 7.4-1.3 11q-2.9 7-8 12.6c-4.4 3.8-9.4 6.5-14.4 9.3l-5.4 3.2-3.7 2.1q-9.2 5.4-18.2 11L503.2 458q-19.4 11.3-38.3 23.1-12.6 7.9-25.4 15.4l-13 7.8-2.5 1.5q-6.3 3.7-12.6 7.7c-5.8 3.7-11.2 6.6-17.9 8q-7.5 1-15.2.8l-3 .1c-5.2 0-9.8-.3-14.6-1.9-7.4-3-14.2-7.3-21-11.4l-4.3-2.6-8.5-5.1q-7.9-4.8-15.7-9.3-9.8-5.8-19.3-11.9-12.6-8-25.7-15.5-14-8.1-27.6-16.4-14-8.6-28.3-17-7.9-4.6-15.8-9.5l-11.5-7-18-11q-12.5-7.8-25.1-15.1l-14-8.5-20.4-12.2q-18.8-11-37.3-22.6l-6.4-4c-5.4-3.3-10.6-6.5-14.7-11.5q-2.6-4.3-4.1-8.9-.6-6-.5-12v-28.7l-.1-3.3c0-4.2.2-7.8 1.6-11.8q2.4-5.2 6-9.6c6.1-5.3 12.8-9.4 19.9-13.4l10.6-6.2 2.2-1.3q10.5-6 20.6-12.4l1.6-1L126 208l4 2 2 4q-16.2 10.4-33 20.3l-29 17.4-2.2 1.4Q60.2 257.7 54 264c-1.3 2-1.3 2-2 4q-.2 3.4-.1 6.8v1.8l.1 4.4q1.8 3 4 6 2.9 2.2 5.9 4l1.8 1.2L70 296l2.6 1.5 16.9 10 9.8 5.9 1.7 1 3.8 2.3 12.5 7.5 4.8 2.9 14.6 8.7 7.6 4.6 1.5.9 25.7 15.5q13.3 8.1 26.8 16l10.9 6.5q9 5.5 18.2 10.8 27.6 16.3 54.8 33l32.7 19.6 3 1.7 2.8 1.7q9 5.2 17.8 10.7l8.5 5.2 2 1.2c9.1 5.7 9.1 5.7 19.2 9.4q5.5.7 11.2.8h2q9.5-.1 18.6-3.4 5.6-2.8 11-6.2l2.6-1.6 8.4-5.2 6.4-4 1.6-1 18-11 5.6-3.3 3.8-2.3 12.8-7.8 7-4.2 1.7-1q13.3-8.2 26.6-16 12-7.2 23.7-14.6 9.6-6 19.3-11.6 9.2-5.3 18.1-11.2l1.5-1c3.3-2.3 5.6-4.8 7.9-8 1.3-2.3 1.3-2.3 2-5v-7q-2-4.4-5-8c-2.2-1.7-2.2-1.7-4.7-3.2l-3-1.8-3.3-2-1.7-1-11.5-6.8q-19.5-11.6-38.9-23.4l-16.3-10-1.8-1q-15.6-9.5-31.3-18.8-13.5-8-26.9-16.3-14.9-9.1-29.9-18l-10.2-6.2-13.2-7.9-34-20.5-21.5-13-13-8-22-13q-9.6-5.5-19-11.5-5.5-3.1-11.8-4.6c-8.6-1-17.7-.8-26.3.5-7.6 2.3-14.4 7.6-21 11.9q-9.8 6.3-19.8 12.2l-3.6 2.2-7 4.2q-16.4 9.8-32.3 20c3.9 5.2 8.2 8.9 13.6 12.5q4 2.5 8.4 4.5l.7-1.7c1.3-2.3 1.3-2.3 3.4-4.4q4.3-3 9.4-4.4 6.8-1.4 13.5-.5 7.4 1.8 14 5.8c2.1 2.3 3.8 4.5 5.3 7.4.7 1.8.7 1.8 1.3 5.1-.2 2.4-.8 4-1.7 6.4L213 242l-3.6 2.4-2 1.3q-4 2.2-8.4 3.3-8.5 1-17-.7-3.7-1.2-7-3.3-4.4-3.9-7.1-9c-.9-2-.9-2-1.1-4l.2-5-2.7-.8c-5-1.6-8.9-4.9-13-8.1-5-4.2-9.1-8.5-12.6-14.2-2.7-4.7-5.2-9.3-6.3-14.8-2-14.8-1-29.8 2-44.4l2.4-10.7q4.5-18.3 4.5-37.3v-2.9c-.1-5.7-.4-11-2.3-16.5q-3.7-9-10.3-16.1Q123 56 116 53c-3.7-1.3-7.4-1.1-11.2-1H98c-4 2.2-7.7 4.4-10.7 7.8Q83 65.3 81 72c-2.3 8.5-1.4 18.6-.8 27.3 1 11.6 3.2 22.6 8 33.3 5.2 10.7 11.4 20 19.8 28.4 5.3 5.1 10.6 9.3 17 13v8q-3.2-.6-5.9-2c-10-6.7-19.4-14.2-26.6-23.9-8.3-11.7-13.7-24.3-17.5-38.1l-.5-2C70.9 103 71 88.7 72 75q.9-6.9 4-13c3-5.3 7.2-9.4 11.8-13.5 5.3-3.7 10.3-5 16.8-5M178 221l-1 4c7.3 2.4 14.2 4.6 22 5v7l-9.1-1.9-2.6-.5q-6.9-1.4-13.3-3.6l1 4 2.3 2.4 1.2 1.3c1.5 1.3 1.5 1.3 3.3 2.4q3.4 1.3 7.1 1.3c5.9 0 5.9 0 11.7-1.1q3-1.4 5.4-3.3 2.2-2.3 4-5v-8q-2.9-3.5-6.5-6-3.7-1.9-7.8-2.3c-6.6-.3-11.8 1.5-17.7 4.3M50 292v28c4.1 7.4 4.1 7.4 7.3 10.1l2.4 1.5 2.3 1.6 10.3 6.2 13.6 8.2 25 15.1 13.4 8.2 17.9 10.7q18 10.6 35.7 21.5l17.5 10.6 1.8 1.2 22.8 13.6q18.8 11 37.4 22.4 11 6.9 22.3 13.4 12.8 7.5 25.4 15.3l1.8 1 1.8 1.2 3.6 2.1 1.7 1 17.9 10.8 12.5 7.6q1.4.7 2.7 1.7l5.1 3c4.7 3 9.4 5.7 14.8 7q5.3.6 10.8.4l2.7.1c6.2 0 11.6-1 17.5-3.2q8-3.6 15.5-8.5l3.5-2.1 9.1-5.6 9.4-5.6 12.2-7.5 21.4-12.9 9.4-5.6 3.8-2.2 1.8-1.2 7.5-4.5 3.8-2.2q4.7-3 9.4-5.7l28-16.9 17.1-10.3 7.7-4.6 3.7-2.2c7.5-4.2 7.5-4.2 13.9-9.9 1.7-2.6 2.8-4.8 3.8-7.8.3-3 .3-3 .2-6.4v-7.4l-.1-3.8-.1-9.4q-4.9 2.4-9.5 5.6-10.7 6.9-21.6 13.4l-1.8 1.1-9.4 5.6-16 9.7-8.7 5.3-1.7 1-10.8 6.6-9.1 5.6-1.8 1-20.8 12.7q-12 7.4-24 14.5l-3.2 2-1.7 1-10 6-6.8 4.1-3.2 2q-9 5.6-18.9 9.8l-2.7 1.2c-6.2 2.2-12.8 2-19.3 2q-8.2.1-16-2c-10.5-4.1-19.9-10.3-29.3-16.3q-9.9-6.3-20-12l-1.5-1-7.6-4.4-15.4-9.2-8-4.7-29.4-18q-14.4-9-29.2-17.4l-3.7-2.1-1.8-1.1-17.2-10.3-15.8-9.4-2.1-1.2-10.5-6.3-21.6-13-12-7.3-2.5-1.5-15-8.9-6.8-4-1.8-1-25.5-15.6q-9-5.6-18.4-11-8.5-5.1-16.9-10.5"/><path fill="#040404" d="m50 292 2 1.3q9 5.7 18 10.9 9.6 5.4 18.9 11.4 12.1 7.7 24.5 14.9l2 1.1 7.4 4.4q16 9.4 31.7 19l7 4.3 1.9 1q19.7 12 39.6 23.7c39.6 23.3 39.6 23.3 57.3 34.4q14.5 9 29.3 17.5l19 11.3q6 3.8 12.4 7.5l14.4 8.7 2.7 1.7 5.3 3.3c7.1 4.5 14.6 8.5 22.7 11 4.6.8 9.3.8 14 .9h2.3c6 0 11.3-1.3 17-3 12-4.7 22.8-11.7 33.5-18.5q7-4.4 14.2-8.6 21.3-12.6 42.3-25.6l26.2-16 26.7-16.1 10.4-6.4 6.3-3.7 4.5-2.7q7.2-4.3 13.5-9.7h2l.2 11.2v9.3l.1 3.3c-.3 3.2-.3 3.2-1.6 6.3q-2.4 4.3-5.7 7.9c-2.3 1.7-2.3 1.7-4.9 3.2l-3 1.7-3.1 1.9-3.3 2-5.3 3-18 10.8-8.8 5.4-1.8 1-17.1 10.4-14.4 8.7-1.8 1-3.6 2.2-29.9 18-19.3 11.6-2.9 1.7-13.7 8.4-6.7 4.1-3.1 2c-7.1 4.4-14.1 8-22.3 9.9q-5.5.7-11 .6h-3c-5-.2-9.5-.6-14.2-2.4q-3-1.4-5.8-3.2l-1.8-1-13.4-8.2-14.9-9.1-5.4-3.4-41.6-24.9q-12.4-7.3-24.7-14.8l-13.5-8.2-9.1-5.5-19.4-11.5c-24.5-14.5-24.5-14.5-36.5-22.2q-16.4-10.2-33.1-19.8-12.8-7.5-25.4-15.4l-19.8-11.9q-9.5-5.4-18.5-11.3l-7.4-4.5-2.4-1.4-4.8-2.8c-3.5-2.1-6.5-4-9.2-7.2q-2.5-3.1-4.1-6.9c-.2-3-.2-3-.2-6.5v-7.8l.1-4z"/><path fill="#040404" d="M333 266.1c7.9 2.3 15.8 5.3 22.8 9.7q3.3 2.4 6.2 5.2l1.9 1.6q5 4.5 8.5 10.3c1.2 2.5 2 4.4 2.6 7.1 1 9.9 1 20.3-1 30v12l4.3 2.9 2.3 1.6q3.1 1.9 6.4 3.5v2l-16 10c-3.8-1-6.3-2.2-9.7-4.1l-3-1.7Q352 352 346 347v-3.2l-.2-12v-5.2c0-10 0-10-1.7-20q-1.5-4.4-4.3-8.2c-1.4-1.5-1.4-1.5-3.8-3.4l-2.2-2.1c-3.7-2.5-7.5-3.8-11.8-4.9q-9.9-2.2-20-1-8.3 1.5-16 5-4.4 2.6-8 6h-2l-.7 1.6c-1.3 2.4-1.3 2.4-2.3 3.8q-1.9 2.6-3 5.6-.8 5.5 0 11 1.3 3.7 3.1 7.2l.9 1.8v2h2l-1 3-16 10c-5.9-2.4-5.9-2.4-8.4-4.4-3-2.7-5-5.5-7-9-1.7-3.5-2.7-6.7-3.2-10.7q-.5-6.5.6-12.9c1.8-6 5-11.2 8.7-16.4 3.5-4.4 7.7-7.7 12.3-10.8 10.2-6.1 20.5-11 32.2-13.5 12.4-2.3 26.4-2.7 38.7-.2"/><path fill="#f1f1f1" d="M332.1 258.8q4 1 7.9 2.2l3.3 1c8.6 3 15.6 7.4 22.7 13 5 4.1 8.6 8.6 11.9 14 2.4 4.3 4.2 8.3 5.1 13l.3 7v2q-.3 8.5-1.9 16.8c-.6 3.8-.6 3.8-.4 10.2l16 10v6l-1.9 1.1-6.9 4.3-4.4 2.7-2.8 1.8-2.6 1.6q-3.3 2.1-6.4 4.5c-2.6-.3-2.6-.3-6-1q-3.2-1.6-6.2-3.5l-1.7-1-3.6-2.3-5.4-3.4-3.4-2.1-1.7-1q-3.2-2-6-4.7v-1.5l.2-15.6.1-5.8v-8.3l.2-2.6q0-3.7-.5-7.2-1.6-4.1-4-8c-4.9-3.4-9.5-6-15.3-7.5q-7.3-1.4-14.7-.5-9 1.5-17.2 5.8-4.6 3.3-7.8 8.2l-1 2v12c2.7 3.5 5.3 6.5 9 9l-1 5-10.5 6.4-3.5 2.1-5.1 3.1-1.6 1q-3.1 2-6.7 3.1l-1.6.3c-12.9-8.3-12.9-8.3-16.6-13l-2.4-4-1.2-2c-1.4-2.7-2.2-5-2.8-8-.8-6.9-1-14 .4-20.9 1.6-5.6 4.7-10.5 7.9-15.3q6.6-8.8 15.7-14.9 10.3-6.9 22-10.9l2-.7c16.1-5.2 33.5-6.4 50.1-3.5M276 272.2q-9 4-17 9.8l-2.4 1.7c-3.6 3-6.4 5.9-8.9 9.8q-4.1 6.4-6.7 13.5-1 8.5 0 17c.9 3.5 2.4 6.4 4.1 9.5q3.6 4.7 8 8.3c2.1 1.5 2.1 1.5 5.9 2.2l17-11v-2h-2l-2-5-1.1-2.6c-1.3-4.8-1-9.5-.9-14.4l1-1.6 1.4-2.2 1.4-2.2c1.3-2 1.3-2 2.2-5l1.8-.9q2.9-1.5 5.6-3.5c5.2-3.2 10.7-5 16.7-6.3q10-1.6 20 .3c5 1.2 9.6 2.7 13.9 5.4 3.8 3.2 6.3 6.8 9 11q1.4 2.9 2 6l.2 3.9v2.2l.1 2.4v2.5l.3 7.8v5.2l.4 13q7.7 6.2 16 11.4l1.8 1.1 4.2 2.5c3-.6 5.1-1.5 7.7-3l2-1.3 2-1.3 2.2-1.2 5.1-3.2v-2l-2.3-1.2-3-1.7-3.1-1.6C376 344 376 344 374 342v-5.7l-.1-3.2c.1-3.1.1-3.1.6-5.4 1.7-9 1.3-18.7.5-27.7-.5-2.6-1.2-4.5-2.4-7q-5.6-8.6-13.6-15c-7-5.1-14.8-8.4-23-11-19.4-5.2-41.7-2.7-60 5.2"/><path fill="#f0f0f0" d="m412 359 5 1 2 4h2v2h-2v2h-6l-19 12h-2q3.4 3.9 7.6 6.8 2.8 1.3 6.1 1.6 4.7.2 9.3-.4 5.4-1.7 10-5c1.8-1.8 1.8-1.8 3-4 .6-2.1.6-2.1.7-4.2l.2-2.2.1-1.6 4 1c1 2 1 2 1.2 3.7q.3 4.2-.7 8.2c-1 2-2 3.4-3.5 5.1q-4.7 3.6-10 6-8 2-16.3 1.3c-3-.5-5.4-1.6-8.1-2.9-3.7-2-6.6-4-9.4-7.3L384 383v-6c9-6.6 18.5-12.3 28-18"/><path fill="#0c0c0c" d="M193 216.4c2.9.2 5 .6 7.8 1.6q3.8 1.7 7.2 4l2 3v8q-2.3 3.1-5 6c-3 1.9-3 1.9-4.7 2.5q-8 1.5-16.3.5c-2.2-.7-3.8-1.5-5.7-2.8q-2.5-2.3-4.3-5.2v-3l3.2.8q10.8 2.8 21.8 5.2v-7l-2.8-.3c-6.8-.9-12.9-2-19.2-4.7l1-4c4.9-2.3 9.6-4.3 15-4.6"/><path fill="#080808" d="M413 367c3.9 1.6 6 2.6 9.3 5l2 1.7c1.7 1.3 1.7 1.3 2.7 2.3l-1 7-3.8 2.4-2.2 1.4c-2 1.2-2 1.2-5 2.2h-12l-10-6-1-3z"/><path fill="#e9e9e9" d="m419 362 4.3 2.3 2.4 1.2c2.3 1.5 2.3 1.5 4 3.7l1.3 1.8h-2v8l-2 1-2-5-9-6 3-1v-2h2v-2h-2z"/></mask></defs><g fill="#2474d4" stroke="#2474d4" stroke-width="1.5" stroke-linejoin="round" vector-effect="non-scaling-stroke" mask="url(#a)"><path d="M129.8 50.6c12.4 9.7 17.8 22 20.2 37.4 2 17.2-1.5 34-5 50.7-3.9 18.7-7.9 38.5-2 57.3l11-6q1.5-.7 3-1.7 13.2-7.5 26-15.7 10-6.3 20.4-12.3 6-3.4 11.7-7.2c10.3-6.6 19.4-9.5 31.7-9.4h2.9c16.7.3 27.5 7.1 41.4 15.6l6.7 4 3.2 2 7.5 4.4 16.4 10q18 11 36.4 21.9c24 14.4 24 14.4 34.6 21.2q6.4 4.1 13.2 7.6 6.3 3.6 12.3 7.4 6 3.7 12.1 7.2 12.9 7.5 25.5 15.5 9 6 18.6 11.1l9.9 6q10.5 6.7 21.4 13l15 9 9.3 5.4q17 10 33.7 20.7l4.3 2.6c7.8 4.8 12.4 9.7 14.8 18.7q.5 6.2.4 12.3v10.9l.1 11.3V392c0 8-1.5 14.4-7.4 20.4-4.1 3.9-9 6.4-13.9 9.1q-7.4 4.3-14.5 8.8-9.2 5.8-18.8 11.4-13 7.6-26 15.6l-23.5 14.2-25.3 15.3q-15.2 9.5-30.7 18.5l-3.1 1.9-3.1 1.8-13.3 8.2q-6 3.4-12.9 4.7l-4 1-10 .3h-2.7c-12.8 0-22.3-3.9-33-10.6l-7.2-4.4-3.6-2.2-16-9.4q-12-6.8-23.4-14.2-10-6.4-20.3-12.3l-23-13.8L225 441q-12.1-7.1-24.2-14.5l-16.1-9.7L167 406q-10.8-6.8-21.8-13.2L125.7 381l-16-9.7-28.5-17.2q-12-7.3-24-14.3c-5-3-5-3-7.2-4.9v-2h-2c-4.4-7.3-5.8-13.2-5.8-21.6V308l-.1-6.7-.2-10.3v-6.6l-.1-3.1c0-10.3 1.5-18.4 8.2-26.4 5.7-5 12-9 18.5-12.8l2.6-1.6 12.1-7 4-2.4 2-1.2q11.3-6.7 22.4-13.8 8-5.1 16.4-9.2l5 6q-4.1 4.3-9.1 7.4l-3 1.9-3.3 2-3.3 2q-9.7 6-19.7 11.6-11.2 6.7-22.3 13.6l-6 3.7c-6.5 4-10.8 7.8-14.3 14.8-.3 5.6-.2 9.8 2 15h2v2l2.2.8q4.2 1.8 7.9 4.4 8.7 5.6 17.7 11l3.3 1.9 24.4 14.5 17.3 10.5 11 6.5 23.5 14 26.2 16 7.6 4.5q11.6 7 23.5 13.7 9.4 5.3 18.4 11.2c12 7.6 12 7.6 24.3 14.5l6.6 4.1q9.6 6.3 19.5 11.8 11.8 6.8 23.2 14 4 2.5 8 4.7 6.3 3.3 12 7.4 5.3 3.1 10.7 6 3.7 2.1 7 4.6c12.3 8.4 26.2 10.5 40.6 8 8.6-1.5 15.4-5.3 22.7-10l5.6-3.5 2.9-1.8q7-4.4 14.2-8.5l18-11q12-7.5 24.4-14.6 17.8-10.5 35.2-21.4L529 391l2-1.2 6.6-4 2.2-1.4 12.6-7.6 2.6-1.6 5.2-3c10.5-6.2 10.5-6.2 16.8-16.2.6-4.7 0-8.7-2.3-13-4.1-5-10.2-7.8-15.7-11l-6.2-3.7-14-8.3q-20.5-12-40.9-24.6l-21-12.7-27.5-16.6-32.5-19.5q-11.6-6.7-22.9-13.9l-13.9-8.3-22.3-13.5c-9.8-6.1-9.8-6.1-19.8-11.9q-11.8-6.7-23.3-14-10.2-6.3-20.7-12.5-5.4-3-10.7-6.4c-14.3-9-27-15.5-44.5-12.6-10.6 2.5-19 7.8-28.2 13.6q-10.9 7-22 13.4-7.8 4.5-15.5 9.5l-13.3 8.4-5 3.2-3.8 2.4c2 3.9 3 5 6.3 7.5l2.4 1.8q4 3 8.3 5.7c4-1.7 4-1.7 6.5-4.4 7.2-5.3 15.8-6.3 24.6-5.2 7.6 1.6 13.7 5 17.9 11.6 2.3 5.7 2.6 10.3.2 16-3.3 6-8 9.2-14.2 12-8.4 2.2-17.8 2-25.8-1.6-4.5-2.9-8.5-6.5-9.8-11.8l-.5-2.5c-1.2-5.3-4.1-7-8.7-9.8l-3.7-2.3c-4-2.3-7.2-4.8-10.5-8v-2h-2c-11.8-13.7-11.8-31-11-48 .8-9.4 3-18.6 4.9-27.9l.7-3 .6-3c3.9-18.5 8-42.1-2.6-59-6.4-8.6-12-14.4-22.6-17.1-8-.6-14.2-.6-21 4-7.7 7-9.9 15.5-10.4 25.7-.8 27.7 5.6 54.3 25.1 75 5 5 10 9.4 15.9 13.2 2.4 1.8 3.3 2.5 3.9 5.5 0 2.5 0 2.5-.5 6.6-18-5.2-32.1-23.1-40.8-38.8C76.4 129.6 71.5 112.5 71 96l-.1-3.3C70.6 77.2 72.3 63 83 51c2.6-2 2.6-2 5.4-3.7l2.8-1.8c12.2-6.5 27.8-2.2 38.6 5.1M180 221l-2 3c7.3 3.3 14 5.3 22 5v8l-9.1-1.4-2.6-.4L175 233c2.8 5.5 6.3 7 12 9 6.6 1.3 12.3-.7 18-4 2.7-2 3.7-3.3 4.9-6.4.1-3.5-.3-5.5-1.9-8.6-8.7-6-18.7-7.2-28-2M52 296c-2 3.8-1.4 8.4-1.4 12.6l-.2 2.9c0 7.3 1.5 12 6.6 17.5 3.4 2.7 3.4 2.7 7.2 4.6l4 2.3L72 338l5.4 3.4c14.6 9.4 14.6 9.4 29.6 18q13.7 7.7 27 16.4 6.5 4.2 13.4 7.7 3.7 2.1 7.1 4.5 4.6 3.1 9.6 5.8 6.8 3.6 13.2 7.8 9.7 6 19.7 11.9 9.8 5.7 19.5 11.8 7 4.5 14 8.4 18 10.3 35.5 21.4 11.7 7.2 23.7 14l12.4 7.5q19 11.7 38 23 6.6 3.8 13 7.8c13 8 26.1 9 40.9 5.6 8.7-2.4 16.1-7.6 23.6-12.5q28.4-17.9 57.4-34.7 11.4-6.8 22.7-13.8l16.8-10q14.4-8.5 28.7-17.3l8-4.8L564 412l3-1.8c5.9-3.7 9.2-7.2 11-14.2l.1-5.6v-10.1l-.1-8.3-6.2 3.5-3.5 2-13.8 8.3-17.7 10.8-3.6 2.2-18 10.8-10.4 6.4-24.6 15-14.9 9.1q-9 5.6-17.9 10.8l-15.5 9.5-3.8 2.3-7.2 4.4c-14.9 9.1-29.1 15.2-46.9 13.9l-2.9-.2c-16.3-1.8-31.2-13.4-44.9-21.8l-17-10.4-3.6-2.2q-13.5-8.2-27.4-16-11-6.4-21.6-13.2-9.3-6-19-11.6l-13.6-8-19.4-11.5q-27-16.1-54-32.5l-30-17.8q-20.7-12-41-24.9-9.1-5.7-18.5-11l-2-1.2c-3.4-2-3.4-2-7.1-2.7"/><path d="m361 270 2.3 1.6c9.5 6.7 16.9 17 19.7 28.4q.2 5.4.2 10.9v3c0 8-.7 15.4-2.2 23.1l3.7 2.2 4.8 3 2.5 1.4q3.2 1.8 6 4.4c.7 3.2.7 3.2 0 6-3 2.4-5.8 4-9 6l-4.4 2.9-4.7 3.1-2.3 1.6c-3.8 2.3-5.7 3.5-10.2 3q-5.8-2.8-11.2-6.3l-2-1.2-4-2.7c-2.2-1.5-2.2-1.5-5-2.6-3.2-1.6-5-2.8-7.2-5.8-1.3-7-1.1-14-1-21l.1-8.7.1-5.4c.1-7.2-1.3-11-6.3-16-8-6.5-18-6.7-27.9-5.9q-5.1 1-10 3l-2.2.9c-5.8 2.5-9.1 6-12.1 11.5-1.3 4.9-1.4 8.3 1 12.8 2.2 2.9 2.2 2.9 5 4.8 2.3 2 2.3 2 2.9 4.8-.6 3.2-.6 3.2-3.7 5.7l-4.2 2.4-4.4 2.6-2.2 1.3q-5.5 3.4-10.8 7.1c-3 1.4-4.2 1.2-7.3.1-10.4-6.2-17.3-13.4-21-25-3.1-13-.5-25.6 6.3-36.9C252.8 272 274 262.4 295 258c23.3-3.2 46-1.2 66 12m-105 16-2.6 2.3c-7.7 8.6-13.2 17.5-12.7 29.4 1.2 9.8 5.2 17.2 12.9 23.4 3.1 2.3 3.1 2.3 5.8 1.2q4.3-2.1 8.4-4.7l3-1.7 2.2-1.9c0-4-.4-5.3-2-8.7-2.6-6.3-2.7-10.9-.8-17.4 4.7-10.2 10.6-14.2 20.8-18.9 13-4.4 27.6-4.5 40.3 1 7.1 4 11.4 10.2 14.1 17.7 1.1 4.3.9 8.5.7 12.9v5.8q0 5-.3 10c0 7.2 0 7.2 3.4 13q4.2 3.3 8.8 5.6l2.8 1.8c4.4 3.2 4.4 3.2 9.6 4.1 3.3-1.2 6-2.9 9-4.8q1.4-1.1 3.2-2.2l2.4-1.9v-2l-5-1v-2c-3.2-2.3-3.2-2.3-7-3q-.3-10.4 1-20.6c1.7-13.4 1.8-24-6.3-35.3-9.8-12.3-25-20.2-40.7-22.1-25.2-2.9-51.6 2.8-71 20m160.4 72.4 2.6 1.6 2.6 1.5c12.6 8.8 12.6 8.8 13.9 14.7.2 3.8-.4 6.6-2 10-6.3 7-13 10.2-22.5 10.8-9.4.3-16.9-2.6-24-8.7-2.5-2.6-3.9-5-4.9-8.4 2.2-7.2 13.8-12.1 20-15.9l3-1.8c7-4.3 7-4.3 11.3-3.8m-9.6 13-2.3 1.5-2.3 1.6-2.4 1.6-5.8 3.9c1.9 3.8 3 5.3 6.7 7.2 6.3 2.1 13.8 1.9 20-.9 3.2-2.3 5-3.5 6.3-7.3-2-4-2.8-5-6.3-7.3l-2.3-1.5c-4.5-2.2-7.6-1.5-11.6 1.2"/></g></svg>